<?xml version="1.0" encoding="UTF-8" standalone="no"?>
<svg
   xmlns:dc="http://purl.org/dc/elements/1.1/"
   xmlns:cc="http://creativecommons.org/ns#"
   xmlns:rdf="http://www.w3.org/1999/02/22-rdf-syntax-ns#"
   xmlns:svg="http://www.w3.org/2000/svg"
   xmlns="http://www.w3.org/2000/svg"
   xmlns:sodipodi="http://sodipodi.sourceforge.net/DTD/sodipodi-0.dtd"
   xmlns:inkscape="http://www.inkscape.org/namespaces/inkscape"
   version="1.1"
   id="Layer_1"
   x="0px"
   y="0px"
   width="924.691px"
   height="223.457px"
   viewBox="0 0 924.691 223.457"
   enable-background="new 0 0 924.691 223.457"
   xml:space="preserve"
   sodipodi:docname="banner.svg"
   inkscape:version="1.0.1 (3bc2e813f5, 2020-09-07)"><metadata
   id="metadata56"><rdf:RDF><cc:Work
       rdf:about=""><dc:format>image/svg+xml</dc:format><dc:type
         rdf:resource="http://purl.org/dc/dcmitype/StillImage" /><dc:title></dc:title></cc:Work></rdf:RDF></metadata><defs
   id="defs54" /><sodipodi:namedview
   pagecolor="#ffffff"
   bordercolor="#666666"
   borderopacity="1"
   objecttolerance="10"
   gridtolerance="10"
   guidetolerance="10"
   inkscape:pageopacity="0"
   inkscape:pageshadow="2"
   inkscape:window-width="1918"
   inkscape:window-height="1056"
   id="namedview52"
   showgrid="false"
   inkscape:pagecheckerboard="true"
   inkscape:zoom="2.3570419"
   inkscape:cx="320.44951"
   inkscape:cy="105.1939"
   inkscape:window-x="0"
   inkscape:window-y="22"
   inkscape:window-maximized="0"
   inkscape:current-layer="Layer_1" />
<g
   id="g18"
   style="stroke:#ffffff;stroke-opacity:1;stroke-width:0.5;stroke-miterlimit:4;stroke-dasharray:none">
	<path
   fill="#231F20"
   d="M127.947,175.222H53.149c-11.22,0-20.883-3.625-28.984-10.88c-8.104-7.251-12.155-16.035-12.155-26.349   V82.914c0-10.425,4.021-19.236,12.07-26.434c8.045-7.196,17.735-10.794,29.069-10.794h74.798c11.331,0,21.021,3.599,29.069,10.794   c8.046,7.198,12.07,16.009,12.07,26.434v55.079c0,10.768-4.25,19.719-12.75,26.859   C148.288,171.767,138.827,175.222,127.947,175.222z M148.006,82.914c0-4.985-1.984-9.18-5.95-12.58   c-3.968-3.4-8.669-5.1-14.109-5.1H53.149c-5.44,0-10.144,1.7-14.11,5.1c-3.968,3.4-5.95,7.594-5.95,12.58v55.079   c0,4.988,1.981,9.18,5.95,12.579c3.966,3.399,8.67,5.101,14.11,5.101h74.798c5.44,0,10.141-1.701,14.109-5.101   c3.966-3.399,5.95-7.591,5.95-12.579V82.914z"
   id="path10"
   style="stroke:#ffffff;stroke-opacity:1;stroke-width:0.5;stroke-miterlimit:4;stroke-dasharray:none" />
	<path
   fill="#231F20"
   d="M528.156,120.144H433.3v17.85c0,4.988,1.98,9.18,5.949,12.579c3.966,3.399,8.67,5.101,14.109,5.101h74.798   c7.026,0,10.54,3.287,10.54,9.859c0,6.459-3.514,9.689-10.54,9.689h-74.798c-11.219,0-20.883-3.625-28.984-10.88   c-8.104-7.251-12.155-16.035-12.155-26.349V82.914c0-10.425,4.021-19.236,12.07-26.434c8.045-7.196,17.735-10.794,29.069-10.794   h74.798c11.332,0,21.021,3.599,29.069,10.794c8.046,7.198,12.07,16.009,12.07,26.434c0,10.769-4.25,19.778-12.75,27.029   C548.498,116.743,539.036,120.144,528.156,120.144z M528.156,65.235h-74.798c-5.439,0-10.144,1.7-14.109,5.1   c-3.969,3.4-5.949,7.594-5.949,12.58v17.85h94.856c5.44,0,10.142-1.727,14.11-5.185c3.965-3.456,5.949-7.677,5.949-12.665   c0-5.1-2.099-9.405-6.29-12.919C538.072,66.823,533.482,65.235,528.156,65.235z"
   id="path12"
   style="stroke:#ffffff;stroke-opacity:1;stroke-width:0.5;stroke-miterlimit:4;stroke-dasharray:none" />
	<path
   fill="#231F20"
   d="M728.411,169.952c-6.348,3.514-13.373,5.27-21.079,5.27h-74.798c-11.22,0-20.883-3.625-28.984-10.88   c-8.104-7.251-12.154-16.035-12.154-26.349c0-10.426,4.021-19.266,12.069-26.52c8.046-7.251,17.735-10.88,29.069-10.88h94.857   v-17.68c0-4.985-1.984-9.18-5.95-12.58c-3.968-3.4-8.669-5.1-14.109-5.1h-74.798c-7.028,0-10.54-3.286-10.54-9.86   c0-6.46,3.512-9.689,10.54-9.689h74.798c11.331,0,21.021,3.599,29.069,10.794c8.046,7.198,12.069,16.009,12.069,26.434v82.618   c0,6.459-3.514,9.689-10.539,9.689C733.172,175.222,729.997,173.466,728.411,169.952z M727.392,119.974h-94.857   c-5.439,0-10.144,1.758-14.109,5.27c-3.969,3.514-5.95,7.764-5.95,12.75c0,4.988,1.981,9.18,5.95,12.579   c3.966,3.399,8.67,5.101,14.109,5.101h74.798c5.44,0,10.142-1.701,14.109-5.101c3.966-3.399,5.95-7.591,5.95-12.579V119.974z"
   id="path14"
   style="stroke:#ffffff;stroke-opacity:1;stroke-width:0.5;stroke-miterlimit:4;stroke-dasharray:none" />
	<path
   fill="#231F20"
   d="M800.829,50.785c6.346-3.4,13.371-5.1,21.079-5.1h49.299c11.331,0,21.021,3.599,29.069,10.794   c8.046,7.198,12.069,16.009,12.069,26.434v82.618c0,6.459-3.514,9.689-10.539,9.689c-7.028,0-10.54-3.23-10.54-9.689V82.914   c0-4.985-1.984-9.18-5.95-12.58c-3.968-3.4-8.669-5.1-14.109-5.1h-49.299c-5.439,0-10.144,1.7-14.109,5.1   c-3.968,3.4-5.95,7.594-5.95,12.58v82.618c0,6.459-3.514,9.689-10.539,9.689c-7.028,0-10.54-3.23-10.54-9.689V55.375   c0-6.46,3.512-9.689,10.54-9.689C795.955,45.686,799.129,47.385,800.829,50.785z"
   id="path16"
   style="stroke:#ffffff;stroke-opacity:1;stroke-width:0.5;stroke-miterlimit:4;stroke-dasharray:none" />
</g>
<g
   id="XMLID_1_"
   style="stroke:#ffffff;stroke-opacity:1;stroke-width:0.5;stroke-miterlimit:4;stroke-dasharray:none">
	
		<linearGradient
   id="XMLID_8_"
   gradientUnits="userSpaceOnUse"
   x1="912.1084"
   y1="80.126"
   x2="991.4429"
   y2="213.27"
   gradientTransform="matrix(-1 0 0 1 1277.7285 0)">
		<stop
   offset="0"
   style="stop-color:#29A5DE"
   id="stop20" />
		<stop
   offset="1"
   style="stop-color:#293E8D"
   id="stop22" />
	</linearGradient>
	<path
   id="XMLID_6_"
   fill="url(#XMLID_8_)"
   d="M182.908,106.251c0.209-2.796,2.27-5.544,4.735-6.505   c1.23-0.48,2.561-0.515,3.812,0.114c1.204,0.603,2.151,1.719,3.455,2.055c3.728,0.959,5.482-4.387,5.718-8.229   c0.982-15.97,6.719-31.617,16.291-44.439c2.984-4,8.504-8.018,12.418-4.92c1.102,0.872,1.828,2.205,3.067,2.868   c2.569,1.375,5.526-0.758,7.784-2.601c19.361-15.808,46.184-17.826,71.153-18.964c3.007-0.137,6.121-0.254,8.921,0.868   c3.666,1.468,5.369,6.518,0.312,7.218c-5.792,0.802-11.67,0.753-17.487,1.151c-1.333,0.091-2.781,0.224-3.573,1.537   c-0.718,1.192-0.534,2.721,0.335,3.809c1.749,2.188,4.546,2.34,7.129,2.491c8.73,0.508,61.2,5.651,50.139,23.716   c-1.975,3.225-6.416,4.131-10.098,3.265c-3.681-0.866-6.861-3.099-10.139-4.985c-11.14-6.411-24.385-9.09-37.141-7.515   c13.05,0.643,24.448,8.743,34.438,17.165c9.989,8.421,19.854,17.738,32.301,21.705c3.802,1.212,7.83,1.918,11.269,3.942   c3.438,2.024,6.237,5.874,5.486,9.792c-1.268,6.613-10.442,7.664-16.914,5.805c-24.281-6.972-40.199-30.963-63.701-40.229   c-17.181-6.773-37.616-4.602-52.989,5.634c-15.373,10.233-25.26,28.249-25.64,46.712c-0.274,13.399,4.228,26.692,11.733,37.795   c7.209,10.668,17.37,19.553,29.435,24.042c15.783,5.872,33.413,3.894,49.734-0.251c16.322-4.144,32.154-10.368,48.798-12.918   c16.646-2.549,34.861-0.951,48.306,9.187c-12.846-12.536-32.725-13.358-49.457-19.854c-2.634-1.023-5.366-2.32-6.47-5.14   c-0.515-1.317-0.415-2.83,0.401-3.985c1.335-1.887,3.673-1.773,5.732-1.538c19.087,2.18,37.838,8.501,53.658,19.397   c15.822,10.897,28.594,26.484,35.003,44.594c-17.808-17.211-42.625-26.945-67.385-26.43c-38.134,0.794-73.921,24.52-111.438,24.128   c-3.668-0.038-5.427-4.514-2.751-7.021l0.069-0.065c-2.334,2.187-13.761-0.215-16.887-0.809   c-6.373-1.209-12.678-3.363-18.459-6.312c-9.994-5.099-18.707-13.015-24.607-22.563c-11.582-18.738-12.707-42.225-22.64-61.888   C184.871,114.328,182.594,110.444,182.908,106.251z"
   style="stroke:#ffffff;stroke-opacity:1;stroke-width:0.5;stroke-miterlimit:4;stroke-dasharray:none" />
	
		<linearGradient
   id="XMLID_9_"
   gradientUnits="userSpaceOnUse"
   x1="1051.8271"
   y1="-3.125"
   x2="1131.1611"
   y2="130.0181"
   gradientTransform="matrix(-1 0 0 1 1277.7285 0)">
		<stop
   offset="0"
   style="stop-color:#29A5DE"
   id="stop26" />
		<stop
   offset="1"
   style="stop-color:#293E8D"
   id="stop28" />
	</linearGradient>
	<path
   id="XMLID_5_"
   fill="url(#XMLID_9_)"
   d="M219.448,28.473c-3.929,3.441-9.014,5.223-13.412,8.042   c-6.634,4.253-11.548,10.794-15.048,17.854c-3.232,6.519-4.314,14.492-7.67,20.641c-0.891-8.453,0.553-18.287,2.389-26.561   c2.007-9.041,5.841-17.887,12.337-24.488c4.694-4.769,17.296-12.83,24.432-9.48C227.435,16.809,222.292,25.983,219.448,28.473z"
   style="stroke:#ffffff;stroke-opacity:1;stroke-width:0.5;stroke-miterlimit:4;stroke-dasharray:none" />
	
		<linearGradient
   id="XMLID_10_"
   gradientUnits="userSpaceOnUse"
   x1="908.4023"
   y1="82.3359"
   x2="987.7391"
   y2="215.4837"
   gradientTransform="matrix(-1 0 0 1 1277.7285 0)">
		<stop
   offset="0"
   style="stop-color:#29A5DE"
   id="stop32" />
		<stop
   offset="1"
   style="stop-color:#293E8D"
   id="stop34" />
	</linearGradient>
	<path
   id="XMLID_4_"
   fill="url(#XMLID_10_)"
   d="M384.971,79.613c-1.797,0.727-3.894,0.338-5.595-0.593   c-1.7-0.931-3.076-2.347-4.394-3.771c-2.719-2.936-10.753-9.568-8.913-14.168c1.328-3.324,5.106-2.789,7.985-2.068   C380.295,60.573,396.988,74.749,384.971,79.613z"
   style="stroke:#ffffff;stroke-opacity:1;stroke-width:0.5;stroke-miterlimit:4;stroke-dasharray:none" />
	
		<linearGradient
   id="XMLID_11_"
   gradientUnits="userSpaceOnUse"
   x1="952.7666"
   y1="55.8994"
   x2="1032.0985"
   y2="189.039"
   gradientTransform="matrix(-1 0 0 1 1277.7285 0)">
		<stop
   offset="0"
   style="stop-color:#29A5DE"
   id="stop38" />
		<stop
   offset="1"
   style="stop-color:#293E8D"
   id="stop40" />
	</linearGradient>
	<path
   id="XMLID_3_"
   fill="url(#XMLID_11_)"
   d="M340.77,36.913c-1.674-0.683-3.011-1.985-4.229-3.321   c-2.127-2.333-4.104-5.79-2.393-8.443l-0.169-0.275c4.528-1.663,10.124,0.474,12.393,4.731c1.142,2.143,1.328,5.12-0.488,6.732   C344.531,37.538,342.443,37.597,340.77,36.913z"
   style="stroke:#ffffff;stroke-opacity:1;stroke-width:0.5;stroke-miterlimit:4;stroke-dasharray:none" />
	
		<linearGradient
   id="XMLID_12_"
   gradientUnits="userSpaceOnUse"
   x1="951.3916"
   y1="56.7183"
   x2="1030.7269"
   y2="189.8636"
   gradientTransform="matrix(-1 0 0 1 1277.7285 0)">
		<stop
   offset="0"
   style="stop-color:#29A5DE"
   id="stop44" />
		<stop
   offset="1"
   style="stop-color:#293E8D"
   id="stop46" />
	</linearGradient>
	<path
   id="XMLID_2_"
   fill="url(#XMLID_12_)"
   d="M270.852,182.319c-10.759-2.837-20.787-8.891-27.634-17.662   c-12.427-15.923-12.323-40.383,0.239-56.198c12.561-15.816,36.363-21.456,54.691-12.953c3.105,1.448,10.117,10.679,2.348,9.272   c-7.053-1.277-12.623-1.027-19.607-1.027c-7.552,1.795-14.619,5.915-19.549,11.956c-10.682,13.092-10.918,33.266-1.507,47.298   c9.411,14.033,27.306,21.448,44.081,19.421C293.061,184.887,281.611,185.156,270.852,182.319z"
   style="stroke:#ffffff;stroke-opacity:1;stroke-width:0.5;stroke-miterlimit:4;stroke-dasharray:none" />
</g>
</svg>
